<mxfile host="65bd71144e">
    <diagram id="SYYDDjzLG9KY0evDOKpO" name="第 1 页">
        <mxGraphModel dx="1177" dy="892" grid="1" gridSize="10" guides="1" tooltips="1" connect="1" arrows="1" fold="1" page="1" pageScale="1" pageWidth="827" pageHeight="1169" math="0" shadow="0">
            <root>
                <mxCell id="0"/>
                <mxCell id="1" parent="0"/>
                <mxCell id="4" value="触发" style="edgeStyle=none;html=1;" parent="1" source="2" target="3" edge="1">
                    <mxGeometry relative="1" as="geometry"/>
                </mxCell>
                <mxCell id="2" value="数据改变" style="rounded=0;whiteSpace=wrap;html=1;" parent="1" vertex="1">
                    <mxGeometry x="30" y="10" width="90" height="50" as="geometry"/>
                </mxCell>
                <mxCell id="6" value="通知订阅者" style="edgeStyle=none;html=1;entryX=0;entryY=0.5;entryDx=0;entryDy=0;" parent="1" source="3" target="9" edge="1">
                    <mxGeometry relative="1" as="geometry">
                        <mxPoint x="620" y="60" as="targetPoint"/>
                    </mxGeometry>
                </mxCell>
                <mxCell id="3" value="setter" style="whiteSpace=wrap;html=1;rounded=0;" parent="1" vertex="1">
                    <mxGeometry x="260" y="10" width="80" height="50" as="geometry"/>
                </mxCell>
                <mxCell id="12" value="" style="edgeStyle=none;html=1;" parent="1" source="9" target="11" edge="1">
                    <mxGeometry relative="1" as="geometry"/>
                </mxCell>
                <mxCell id="9" value="patch(oldVnode, newVnode)" style="whiteSpace=wrap;html=1;rounded=0;" parent="1" vertex="1">
                    <mxGeometry x="540" y="10" width="170" height="50" as="geometry"/>
                </mxCell>
                <mxCell id="14" value="标签不同" style="html=1;" parent="1" source="11" target="13" edge="1">
                    <mxGeometry x="0.0109" relative="1" as="geometry">
                        <mxPoint as="offset"/>
                    </mxGeometry>
                </mxCell>
                <mxCell id="16" value="相同" style="html=1;" parent="1" source="11" target="15" edge="1">
                    <mxGeometry relative="1" as="geometry"/>
                </mxCell>
                <mxCell id="11" value="sameVnode" style="rhombus;whiteSpace=wrap;html=1;rounded=0;" parent="1" vertex="1">
                    <mxGeometry x="530" y="125" width="190" height="80" as="geometry"/>
                </mxCell>
                <mxCell id="13" value="直接替换节点" style="whiteSpace=wrap;html=1;rounded=0;" parent="1" vertex="1">
                    <mxGeometry x="670" y="240" width="120" height="60" as="geometry"/>
                </mxCell>
                <mxCell id="18" value="" style="edgeStyle=none;html=1;" parent="1" source="15" target="17" edge="1">
                    <mxGeometry relative="1" as="geometry"/>
                </mxCell>
                <mxCell id="15" value="patchVnode" style="whiteSpace=wrap;html=1;rounded=0;" parent="1" vertex="1">
                    <mxGeometry x="470" y="240" width="120" height="60" as="geometry"/>
                </mxCell>
                <mxCell id="20" value="相等" style="edgeStyle=none;html=1;" parent="1" source="17" target="19" edge="1">
                    <mxGeometry relative="1" as="geometry"/>
                </mxCell>
                <mxCell id="25" value="不相等" style="edgeStyle=none;html=1;" parent="1" source="17" target="24" edge="1">
                    <mxGeometry relative="1" as="geometry"/>
                </mxCell>
                <mxCell id="17" value="oldVnode === newVnode" style="rhombus;whiteSpace=wrap;html=1;rounded=0;" parent="1" vertex="1">
                    <mxGeometry x="420" y="330" width="220" height="80" as="geometry"/>
                </mxCell>
                <mxCell id="19" value="return" style="whiteSpace=wrap;html=1;rounded=0;" parent="1" vertex="1">
                    <mxGeometry x="670" y="390" width="120" height="60" as="geometry"/>
                </mxCell>
                <mxCell id="27" value="" style="edgeStyle=elbowEdgeStyle;html=1;" parent="1" source="24" target="26" edge="1">
                    <mxGeometry relative="1" as="geometry"/>
                </mxCell>
                <mxCell id="29" value="" style="edgeStyle=elbowEdgeStyle;html=1;" parent="1" source="24" target="28" edge="1">
                    <mxGeometry relative="1" as="geometry"/>
                </mxCell>
                <mxCell id="31" value="" style="edgeStyle=elbowEdgeStyle;html=1;" parent="1" source="24" target="30" edge="1">
                    <mxGeometry relative="1" as="geometry"/>
                </mxCell>
                <mxCell id="33" value="" style="edgeStyle=elbowEdgeStyle;html=1;" parent="1" source="24" target="32" edge="1">
                    <mxGeometry relative="1" as="geometry"/>
                </mxCell>
                <mxCell id="24" value="分情况" style="whiteSpace=wrap;html=1;rounded=0;" parent="1" vertex="1">
                    <mxGeometry x="470" y="460" width="120" height="60" as="geometry"/>
                </mxCell>
                <mxCell id="35" value="" style="edgeStyle=elbowEdgeStyle;html=1;" parent="1" source="26" target="34" edge="1">
                    <mxGeometry relative="1" as="geometry"/>
                </mxCell>
                <mxCell id="26" value="oldVnode和newVnode都有文本节点" style="whiteSpace=wrap;html=1;rounded=0;" parent="1" vertex="1">
                    <mxGeometry x="240" y="90" width="120" height="90" as="geometry"/>
                </mxCell>
                <mxCell id="37" value="" style="edgeStyle=elbowEdgeStyle;html=1;" parent="1" source="28" target="36" edge="1">
                    <mxGeometry relative="1" as="geometry"/>
                </mxCell>
                <mxCell id="28" value="oldVnode没有子节点, newVnode有子节点" style="whiteSpace=wrap;html=1;rounded=0;" parent="1" vertex="1">
                    <mxGeometry x="240" y="210" width="120" height="80" as="geometry"/>
                </mxCell>
                <mxCell id="39" value="" style="edgeStyle=elbowEdgeStyle;html=1;" parent="1" source="30" target="38" edge="1">
                    <mxGeometry relative="1" as="geometry"/>
                </mxCell>
                <mxCell id="30" value="oldVnode有子节点, newVnode没有子节点" style="whiteSpace=wrap;html=1;rounded=0;" parent="1" vertex="1">
                    <mxGeometry x="240" y="330" width="120" height="80" as="geometry"/>
                </mxCell>
                <mxCell id="41" value="" style="edgeStyle=elbowEdgeStyle;html=1;" parent="1" source="32" target="40" edge="1">
                    <mxGeometry relative="1" as="geometry"/>
                </mxCell>
                <mxCell id="32" value="oldVnode和newVnode都有子节点" style="whiteSpace=wrap;html=1;rounded=0;" parent="1" vertex="1">
                    <mxGeometry x="240" y="450" width="120" height="80" as="geometry"/>
                </mxCell>
                <mxCell id="34" value="新文本替换旧文本" style="whiteSpace=wrap;html=1;rounded=0;" parent="1" vertex="1">
                    <mxGeometry x="40" y="105" width="120" height="60" as="geometry"/>
                </mxCell>
                <mxCell id="36" value="增加新子节点" style="whiteSpace=wrap;html=1;rounded=0;" parent="1" vertex="1">
                    <mxGeometry x="40" y="220" width="120" height="60" as="geometry"/>
                </mxCell>
                <mxCell id="38" value="删除旧子节点" style="whiteSpace=wrap;html=1;rounded=0;" parent="1" vertex="1">
                    <mxGeometry x="40" y="340" width="120" height="60" as="geometry"/>
                </mxCell>
                <mxCell id="43" value="" style="edgeStyle=elbowEdgeStyle;html=1;" parent="1" source="40" target="42" edge="1">
                    <mxGeometry relative="1" as="geometry"/>
                </mxCell>
                <mxCell id="40" value="updateChildren" style="whiteSpace=wrap;html=1;rounded=0;" parent="1" vertex="1">
                    <mxGeometry x="40" y="460" width="120" height="60" as="geometry"/>
                </mxCell>
                <mxCell id="92" style="edgeStyle=none;html=1;exitX=0.5;exitY=1;exitDx=0;exitDy=0;entryX=0.5;entryY=0;entryDx=0;entryDy=0;fontColor=default;" parent="1" source="42" target="83" edge="1">
                    <mxGeometry relative="1" as="geometry"/>
                </mxCell>
                <mxCell id="42" value="使用双端双指针对比" style="whiteSpace=wrap;html=1;rounded=0;" parent="1" vertex="1">
                    <mxGeometry x="40" y="555" width="120" height="60" as="geometry"/>
                </mxCell>
                <mxCell id="80" style="edgeStyle=none;html=1;exitX=0.5;exitY=1;exitDx=0;exitDy=0;entryX=0.5;entryY=0;entryDx=0;entryDy=0;fontColor=default;" parent="1" source="44" target="49" edge="1">
                    <mxGeometry relative="1" as="geometry"/>
                </mxCell>
                <mxCell id="44" value="旧头新头" style="whiteSpace=wrap;html=1;rounded=0;" parent="1" vertex="1">
                    <mxGeometry x="40" y="760" width="120" height="60" as="geometry"/>
                </mxCell>
                <mxCell id="81" style="edgeStyle=none;html=1;exitX=0.5;exitY=1;exitDx=0;exitDy=0;entryX=0.5;entryY=0;entryDx=0;entryDy=0;fontColor=default;" parent="1" source="49" target="52" edge="1">
                    <mxGeometry relative="1" as="geometry"/>
                </mxCell>
                <mxCell id="49" value="旧尾新尾" style="whiteSpace=wrap;html=1;rounded=0;" parent="1" vertex="1">
                    <mxGeometry x="40" y="840" width="120" height="60" as="geometry"/>
                </mxCell>
                <mxCell id="86" value="" style="edgeStyle=none;html=1;fontColor=default;" parent="1" source="51" target="57" edge="1">
                    <mxGeometry relative="1" as="geometry"/>
                </mxCell>
                <mxCell id="51" value="旧尾新头相等" style="whiteSpace=wrap;html=1;rounded=0;" parent="1" vertex="1">
                    <mxGeometry x="40" y="1000" width="120" height="60" as="geometry"/>
                </mxCell>
                <mxCell id="82" style="edgeStyle=none;html=1;exitX=0.5;exitY=1;exitDx=0;exitDy=0;entryX=0.5;entryY=0;entryDx=0;entryDy=0;fontColor=default;" parent="1" source="52" target="51" edge="1">
                    <mxGeometry relative="1" as="geometry"/>
                </mxCell>
                <mxCell id="52" value="旧头新尾相等" style="whiteSpace=wrap;html=1;rounded=0;" parent="1" vertex="1">
                    <mxGeometry x="40" y="920" width="120" height="60" as="geometry"/>
                </mxCell>
                <mxCell id="66" value="" style="edgeStyle=elbowEdgeStyle;html=1;fontColor=default;" parent="1" source="57" target="65" edge="1">
                    <mxGeometry relative="1" as="geometry"/>
                </mxCell>
                <mxCell id="57" value="以上四种都不存在" style="whiteSpace=wrap;html=1;rounded=0;" parent="1" vertex="1">
                    <mxGeometry x="40" y="1080" width="120" height="60" as="geometry"/>
                </mxCell>
                <mxCell id="68" value="存在" style="html=1;fontColor=default;" parent="1" source="65" target="67" edge="1">
                    <mxGeometry relative="1" as="geometry"/>
                </mxCell>
                <mxCell id="70" value="不存在" style="html=1;fontColor=default;" parent="1" source="65" target="69" edge="1">
                    <mxGeometry relative="1" as="geometry"/>
                </mxCell>
                <mxCell id="65" value="将当前新头和旧节点剩余元素一一比对" style="rhombus;whiteSpace=wrap;html=1;rounded=0;" parent="1" vertex="1">
                    <mxGeometry x="225" y="1070" width="290" height="80" as="geometry"/>
                </mxCell>
                <mxCell id="89" style="edgeStyle=none;html=1;exitX=1;exitY=0.5;exitDx=0;exitDy=0;entryX=0;entryY=0.5;entryDx=0;entryDy=0;fontColor=default;" parent="1" source="67" target="71" edge="1">
                    <mxGeometry relative="1" as="geometry"/>
                </mxCell>
                <mxCell id="67" value="将存在的节点移动到头部前" style="whiteSpace=wrap;html=1;rounded=0;" parent="1" vertex="1">
                    <mxGeometry x="310" y="970" width="120" height="60" as="geometry"/>
                </mxCell>
                <mxCell id="90" style="edgeStyle=none;html=1;exitX=0.5;exitY=0;exitDx=0;exitDy=0;entryX=0.5;entryY=1;entryDx=0;entryDy=0;fontColor=default;" parent="1" source="69" target="71" edge="1">
                    <mxGeometry relative="1" as="geometry"/>
                </mxCell>
                <mxCell id="69" value="将当前新节点元素插入到真实dom的头" style="whiteSpace=wrap;html=1;rounded=0;" parent="1" vertex="1">
                    <mxGeometry x="655" y="1080" width="120" height="60" as="geometry"/>
                </mxCell>
                <mxCell id="94" value="" style="edgeStyle=none;html=1;fontColor=default;" parent="1" source="71" target="93" edge="1">
                    <mxGeometry relative="1" as="geometry"/>
                </mxCell>
                <mxCell id="71" value="新节点头部指针右移" style="rounded=0;whiteSpace=wrap;html=1;fontColor=default;" parent="1" vertex="1">
                    <mxGeometry x="655" y="970" width="120" height="60" as="geometry"/>
                </mxCell>
                <mxCell id="88" style="edgeStyle=none;html=1;exitX=0.5;exitY=1;exitDx=0;exitDy=0;entryX=0.5;entryY=0;entryDx=0;entryDy=0;fontColor=default;" parent="1" source="83" target="44" edge="1">
                    <mxGeometry relative="1" as="geometry"/>
                </mxCell>
                <mxCell id="83" value="oldStartIdx &lt;= oldEndIdx &amp;&amp; newStartIdx &lt;= newEndIdx" style="rhombus;whiteSpace=wrap;fontColor=default;" parent="1" vertex="1">
                    <mxGeometry y="630" width="200" height="110" as="geometry"/>
                </mxCell>
                <mxCell id="96" value="剩余新增" style="edgeStyle=none;html=1;fontColor=default;" parent="1" source="93" target="95" edge="1">
                    <mxGeometry relative="1" as="geometry"/>
                </mxCell>
                <mxCell id="98" value="删除" style="edgeStyle=none;html=1;fontColor=default;" parent="1" source="93" target="97" edge="1">
                    <mxGeometry relative="1" as="geometry"/>
                </mxCell>
                <mxCell id="93" value="循环结束" style="whiteSpace=wrap;html=1;rounded=0;" parent="1" vertex="1">
                    <mxGeometry x="655" y="830" width="120" height="60" as="geometry"/>
                </mxCell>
                <mxCell id="102" style="edgeStyle=none;html=1;exitX=0;exitY=0.5;exitDx=0;exitDy=0;entryX=1;entryY=0.5;entryDx=0;entryDy=0;fontColor=default;" parent="1" source="95" target="99" edge="1">
                    <mxGeometry relative="1" as="geometry"/>
                </mxCell>
                <mxCell id="95" value="将newVnode中剩余元素插入到真实dom节点" style="whiteSpace=wrap;html=1;rounded=0;" parent="1" vertex="1">
                    <mxGeometry x="655" y="650" width="120" height="60" as="geometry"/>
                </mxCell>
                <mxCell id="100" style="edgeStyle=none;html=1;exitX=0.5;exitY=0;exitDx=0;exitDy=0;entryX=0.5;entryY=1;entryDx=0;entryDy=0;fontColor=default;" parent="1" source="97" target="99" edge="1">
                    <mxGeometry relative="1" as="geometry"/>
                </mxCell>
                <mxCell id="97" value="将oldVnode中多余元素从真实dom节点删除" style="whiteSpace=wrap;html=1;rounded=0;" parent="1" vertex="1">
                    <mxGeometry x="310" y="830" width="120" height="60" as="geometry"/>
                </mxCell>
                <mxCell id="99" value="diff结束" style="ellipse;whiteSpace=wrap;html=1;aspect=fixed;fontColor=default;" parent="1" vertex="1">
                    <mxGeometry x="275" y="585" width="190" height="190" as="geometry"/>
                </mxCell>
            </root>
        </mxGraphModel>
    </diagram>
</mxfile>
